# xmcd
# 
# Track frame offsets:
#     150
#     16355
#     31131
#     42871
#     50901
#     64710
#     84870
#     94520
#     105297
#     132047
#     143329
# 
# Disc length: 2071
# 
# Revision: 0
# Processed by: cddbd v1.5.2PL0 Copyright (c) Steve Scherf et al.
# Submitted via: BonkEnc v1.0
# 
DISCID=7a08150b
DTITLE=JOHN MAYALL+ERIC CLAPTON - JM&EC
DYEAR=1968
DGENRE=Blues
TTITLE0=JM+EC13
TTITLE1=JM+EC14
TTITLE2=JM+EC15
TTITLE3=JM+EC16
TTITLE4=JM+EC17
TTITLE5=JM+EC18
TTITLE6=JM+EC19
TTITLE7=JM+EC20
TTITLE8=JM+EC21
TTITLE9=JM+EC23
TTITLE10=JM+EC24
EXTD=
EXTT0=
EXTT1=
EXTT2=
EXTT3=
EXTT4=
EXTT5=
EXTT6=
EXTT7=
EXTT8=
EXTT9=
EXTT10=
PLAYORDER=
